<svg xmlns="http://www.w3.org/2000/svg" width="320" height="320" viewBox="0 0 320 320">
  <defs>
    <filter id="s" x="-50%" y="-50%" width="200%" height="200%">
      <feGaussianBlur in="SourceGraphic" stdDeviation="0.35" />
    </filter>
  </defs>
  <rect width="320" height="320" fill="#010002" />
  <g fill="#fff" opacity="0.92" filter="url(#s)">
    <circle cx="12" cy="28" r="1.1" /><circle cx="44" cy="8" r="0.7" /><circle cx="78" cy="42" r="1.3" />
    <circle cx="102" cy="18" r="0.8" /><circle cx="156" cy="56" r="1" /><circle cx="198" cy="12" r="0.9" />
    <circle cx="234" cy="48" r="1.2" /><circle cx="288" cy="22" r="0.65" /><circle cx="304" cy="58" r="1.1" />
    <circle cx="26" cy="72" r="0.75" /><circle cx="62" cy="94" r="1.15" /><circle cx="118" cy="88" r="0.85" />
    <circle cx="172" cy="102" r="1.25" /><circle cx="214" cy="96" r="0.7" /><circle cx="258" cy="112" r="1" />
    <circle cx="296" cy="104" r="0.95" /><circle cx="8" cy="132" r="1.05" /><circle cx="52" cy="148" r="0.72" />
    <circle cx="96" cy="126" r="1.2" /><circle cx="142" cy="154" r="0.88" /><circle cx="188" cy="138" r="1.1" />
    <circle cx="228" cy="162" r="0.68" /><circle cx="272" cy="144" r="1.2" /><circle cx="312" cy="168" r="0.82" />
    <circle cx="34" cy="186" r="1" /><circle cx="76" cy="204" r="0.78" /><circle cx="124" cy="198" r="1.15" />
    <circle cx="168" cy="218" r="0.7" /><circle cx="206" cy="192" r="1.2" /><circle cx="252" cy="220" r="0.9" />
    <circle cx="294" cy="208" r="1.05" /><circle cx="16" cy="242" r="0.85" /><circle cx="58" cy="266" r="1.1" />
    <circle cx="108" cy="248" r="0.7" /><circle cx="152" cy="272" r="1.2" /><circle cx="194" cy="256" r="0.95" />
    <circle cx="238" cy="278" r="0.75" /><circle cx="282" cy="260" r="1.1" /><circle cx="314" cy="286" r="0.68" />
    <circle cx="40" cy="310" r="1" /><circle cx="88" cy="296" r="0.9" /><circle cx="136" cy="318" r="1.15" />
    <circle cx="176" cy="304" r="0.72" /><circle cx="220" cy="314" r="1.05" /><circle cx="264" cy="300" r="0.88" />
    <circle cx="148" cy="44" r="0.65" /><circle cx="66" cy="156" r="1" /><circle cx="284" cy="176" r="0.7" />
    <circle cx="18" cy="196" r="0.9" /><circle cx="300" cy="240" r="1.2" /><circle cx="92" cy="32" r="0.8" />
    <circle cx="210" cy="72" r="1.1" /><circle cx="130" cy="210" r="0.7" /><circle cx="246" cy="32" r="0.85" />
    <circle cx="54" cy="118" r="1.2" /><circle cx="182" cy="28" r="0.7" /><circle cx="22" cy="88" r="0.95" />
    <circle cx="162" cy="178" r="0.7" /><circle cx="98" cy="62" r="1.05" /><circle cx="270" cy="88" r="0.85" />
    <circle cx="318" cy="132" r="0.65" /><circle cx="2" cy="204" r="0.9" /><circle cx="114" cy="234" r="1.1" />
    <circle cx="200" cy="286" r="0.68" /><circle cx="48" cy="252" r="1.15" /><circle cx="154" cy="116" r="0.75" />
  </g>
  <g fill="#fff" opacity="0.45">
    <circle cx="30" cy="44" r="0.5" /><circle cx="90" cy="76" r="0.45" /><circle cx="140" cy="64" r="0.55" />
    <circle cx="190" cy="44" r="0.4" /><circle cx="250" cy="72" r="0.5" /><circle cx="310" cy="12" r="0.45" />
    <circle cx="14" cy="108" r="0.5" /><circle cx="70" cy="132" r="0.4" /><circle cx="130" cy="118" r="0.55" />
    <circle cx="190" cy="128" r="0.45" /><circle cx="246" cy="152" r="0.5" /><circle cx="298" cy="118" r="0.4" />
    <circle cx="38" cy="168" r="0.45" /><circle cx="98" cy="182" r="0.5" /><circle cx="158" cy="164" r="0.4" />
    <circle cx="218" cy="188" r="0.55" /><circle cx="278" cy="172" r="0.45" /><circle cx="318" cy="198" r="0.5" />
    <circle cx="22" cy="228" r="0.4" /><circle cx="82" cy="214" r="0.5" /><circle cx="142" cy="242" r="0.45" />
    <circle cx="202" cy="230" r="0.55" /><circle cx="262" cy="248" r="0.4" /><circle cx="318" cy="226" r="0.5" />
    <circle cx="6" cy="288" r="0.45" /><circle cx="66" cy="304" r="0.4" /><circle cx="126" cy="278" r="0.5" />
    <circle cx="186" cy="292" r="0.45" /><circle cx="246" cy="312" r="0.4" /><circle cx="306" cy="296" r="0.5" />
  </g>
</svg>
